<svg xmlns="http://www.w3.org/2000/svg" version="1.1" xmlns:xlink="http://www.w3.org/1999/xlink" xmlns:svgjs="http://svgjs.dev/svgjs" width="1000" height="1000" viewBox="0 0 1000 1000"><g transform="matrix(1,0,0,1,-0.14221556886212738,-0.14221556886229791)"><svg viewBox="0 0 334 334" data-background-color="#ffffff" preserveAspectRatio="xMidYMid meet" height="1000" width="1000" xmlns="http://www.w3.org/2000/svg" xmlns:xlink="http://www.w3.org/1999/xlink"><g id="tight-bounds" transform="matrix(1,0,0,1,0.04749999999998522,0.04750000000001364)"><svg viewBox="0 0 333.90454557049503 333.90454557049503" height="333.90454557049503" width="333.90454557049503"><g><svg></svg></g><g><svg viewBox="0 0 333.90454557049503 333.90454557049503" height="333.90454557049503" width="333.90454557049503"><g><path d="M0 166.952c0-92.205 74.747-166.952 166.952-166.952 92.205 0 166.952 74.747 166.953 166.952 0 92.205-74.747 166.952-166.953 166.953-92.205 0-166.952-74.747-166.952-166.953zM166.952 316.63c82.665 0 149.677-67.013 149.678-149.678 0-82.665-67.013-149.677-149.678-149.677-82.665 0-149.677 67.013-149.677 149.677 0 82.665 67.013 149.677 149.677 149.678z" data-fill-palette-color="tertiary" fill="#915eff" stroke="transparent"></path><ellipse rx="160.27418187383762" ry="160.27418187383762" cx="166.95227278524752" cy="166.95227278524752" fill="#915eff" stroke="transparent" stroke-width="0" fill-opacity="1" data-fill-palette-color="tertiary"></ellipse></g><g transform="matrix(1,0,0,1,97.17026919535456,71.17305217166896)"><svg viewBox="0 0 139.5640071797859 191.55844122715712" height="191.55844122715712" width="139.5640071797859"><g><svg viewBox="0 0 139.5640071797859 191.55844122715712" height="191.55844122715712" width="139.5640071797859"><g><svg viewBox="0 0 139.5640071797859 191.55844122715712" height="191.55844122715712" width="139.5640071797859"><g><svg viewBox="0 0 139.5640071797859 191.55844122715712" height="191.55844122715712" width="139.5640071797859"><g id="textblocktransform"><svg viewBox="0 0 139.5640071797859 191.55844122715712" height="191.55844122715712" width="139.5640071797859" id="textblock"><g><svg viewBox="0 0 139.5640071797859 191.55844122715712" height="191.55844122715712" width="139.5640071797859"><g transform="matrix(1,0,0,1,0,0)"><svg width="139.5640071797859" viewBox="2.299999952316284 -35 25.5 35" height="191.55844122715712" data-palette-color="#ffffff"><path d="M2.3-28.7L2.3-35 15-35Q21.5-35 24.65-31.98 27.8-28.95 27.8-22.6L27.8-22.6 27.8-12.4Q27.8-6.05 24.65-3.03 21.5 0 15 0L15 0 2.3 0 2.3-6.35 5.6-6.35 5.6-28.7 2.3-28.7ZM12.2-6.3L15-6.3Q18.45-6.3 19.83-7.93 21.2-9.55 21.2-13L21.2-13 21.2-22.6Q21.2-25.6 19.83-27.15 18.45-28.7 15-28.7L15-28.7 12.2-28.7 12.2-6.3Z" opacity="1" transform="matrix(1,0,0,1,0,0)" fill="#ffffff" class="undefined-text-0" data-fill-palette-color="quaternary" id="text-0"></path></svg></g></svg></g></svg></g></svg></g></svg></g></svg></g></svg></g></svg></g><defs></defs></svg><rect width="333.90454557049503" height="333.90454557049503" fill="none" stroke="none" visibility="hidden"></rect></g></svg></g></svg>